<svg width="210" height="48" viewBox="0 0 210 48" fill="none" xmlns="http://www.w3.org/2000/svg">
<g clip-path="url(#clip0)">
<path d="M24.2163 7.53197L17.5316 14.6809C17.2793 14.9362 17.0271 14.9362 16.7748 14.8086C15.7658 14.1703 14.7568 13.532 13.6217 13.2767C13.3694 13.149 13.2433 13.0213 13.2433 12.766L12.6127 3.57453C12.6127 3.31921 12.7388 3.06389 12.991 2.93623L19.6757 0.127718C19.928 5.86137e-05 20.3064 0.127718 20.4325 0.383037L24.2163 6.76602C24.4685 7.02134 24.3424 7.27665 24.2163 7.53197Z" fill="#FF6600"/>
<path d="M9.83789 12.6382C7.946 12.6382 6.18023 13.1489 4.66672 14.0425C4.28834 14.1701 3.90996 14.0425 3.78384 13.6595L0.12618 2.80844C5.42402e-05 2.42546 0.378433 2.04248 0.756811 2.04248L9.83789 3.19142C10.0901 3.19142 10.3424 3.44674 10.3424 3.70206L10.7208 12.6382C10.4685 12.6382 10.2163 12.6382 9.83789 12.6382Z" fill="#FF6600"/>
<path d="M25.856 9.06384L19.0451 16.2128C18.7929 16.4681 18.7929 16.7234 19.0451 16.9787C19.8019 17.8724 20.4325 19.0213 20.8109 20.1702C20.937 20.4255 21.0632 20.5532 21.3154 20.5532H30.3965C30.6487 20.5532 30.901 20.4255 30.901 20.1702L33.2974 13.2766C33.4235 13.0213 33.2974 12.6383 33.0451 12.5106L26.6127 8.93618C26.3605 8.80852 26.1082 8.93618 25.856 9.06384Z" fill="#FF6600"/>
<path d="M21.5677 23.8726C21.5677 25.7875 21.1893 27.5747 20.4326 29.2343C20.3064 29.6173 20.4326 30.0003 20.8109 30.1279L31.7839 33.1918C32.1623 33.3194 32.6668 32.9364 32.5407 32.5535L30.901 23.4896C30.901 23.2343 30.6488 22.979 30.2704 22.979H21.4416C21.4416 23.2343 21.5677 23.6173 21.5677 23.8726Z" fill="#FF6600"/>
<path d="M16.7748 30.6383C13.2433 34.3404 7.5676 34.4681 3.90994 31.0213C0.126154 27.4468 2.7597e-05 21.5745 3.53156 17.8723C7.06309 14.1702 12.7388 14.0426 16.3964 17.4894C20.0541 21.0638 20.1802 26.9362 16.7748 30.6383Z" fill="#FF6600"/>
<path d="M118.685 33.5746V19.0214C118.685 18.6384 118.685 15.8299 116.415 13.4044C114.27 11.2342 111.117 10.2129 106.955 10.2129C102.793 10.2129 99.6397 11.3618 97.6217 13.532C95.4776 15.8299 95.3514 18.5108 95.3514 19.1491V33.7023H101.153V26.298H113.009V33.7023H118.685V33.5746ZM101.027 21.7023V18.7661C101.027 17.8725 101.406 15.4469 106.955 15.4469C112.505 15.4469 112.883 18.0001 112.883 18.7661V21.7023H101.027Z" fill="#211551"/>
<path d="M157.532 40.7236V42.2555H152.613V43.5321H157.027V45.0641H152.613V46.4683H157.532V47.8726H150.721V40.7236H157.532Z" fill="#211551"/>
<path d="M162.198 43.2768V47.8726H160.432V40.7236H161.946L166.234 45.447L166.108 40.7236H167.874V47.8726H166.36L162.198 43.2768Z" fill="#211551"/>
<path d="M177.838 40.7236V42.2555H172.919V43.5321H177.333V45.0641H172.919V46.4683H177.964V47.8726H171.153V40.7236H177.838Z" fill="#211551"/>
<path d="M186.288 47.8726L185.027 45.5747H182.883V47.8726H181.117V40.7236H185.658C187.297 40.7236 188.432 41.3619 188.432 43.1492C188.432 44.2981 187.928 45.0641 187.045 45.447L188.685 48.0002H186.288V47.8726ZM185.532 44.1704C186.162 44.1704 186.541 43.7875 186.541 43.2768C186.541 42.7662 186.162 42.3832 185.532 42.3832H182.883V44.2981H185.532V44.1704Z" fill="#211551"/>
<path d="M196.631 47.8723V47.3617C196 47.7446 195.243 48 194.108 48C191.838 48 190.451 46.5957 190.451 44.2978C190.451 42 191.838 40.5957 195.117 40.5957C196.757 40.5957 197.766 40.851 198.27 41.1063V42.6383C197.766 42.5106 196.757 42.1276 195.117 42.1276C192.973 42.1276 192.216 42.8936 192.216 44.2978C192.216 45.7021 192.973 46.468 194.613 46.468C195.369 46.468 196 46.3404 196.505 46.0851V45.1915H194.739V43.7872H198.27V47.8723H196.631Z" fill="#211551"/>
<path d="M203.315 45.1917L200.162 40.7236H202.306L204.324 43.7875L206.216 40.7236H208.36L205.207 45.1917V47.8726H203.315V45.1917Z" fill="#211551"/>
<path d="M39.7297 22.0852C39.7297 14.4257 44.1442 10.2129 53.4775 10.2129C57.7658 10.2129 61.0451 10.9788 62.4324 11.7448V16.7235C61.0451 16.2129 57.6397 15.4469 54.1081 15.4469C48.3063 15.4469 45.6577 17.8725 45.6577 22.2129C45.6577 26.8086 48.1802 29.2342 53.8559 29.2342C57.7658 29.2342 60.7928 28.4682 62.5586 27.8299V32.5533C60.7928 33.5746 57.7658 34.0852 53.4775 34.0852C44.1442 34.0852 39.7297 29.7448 39.7297 22.0852Z" fill="#211551"/>
<path d="M84.8829 33.7024V24.2555H72.3964V33.7024H66.5946V10.7236H72.3964V19.5321H84.8829V10.7236H90.5586V33.7024H84.8829Z" fill="#211551"/>
<path d="M140.252 33.7024L136.342 26.1704H129.027V33.7024H123.225V10.7236H137.73C143.153 10.7236 146.433 12.7662 146.433 18.3832C146.433 22.213 144.793 24.5109 141.892 25.5321L146.937 33.7024H140.252ZM137.604 21.447C139.496 21.447 140.631 20.1704 140.631 18.3832C140.631 16.7236 139.496 15.447 137.351 15.447H128.901V21.447H137.604Z" fill="#211551"/>
<path d="M156.649 10.7236H150.847V33.7024H156.649V10.7236Z" fill="#211551"/>
<path d="M160.306 21.8299C160.306 14.1703 164.973 10.2129 173.297 10.2129C181.622 10.2129 186.288 14.1703 186.288 21.8299C186.288 29.3618 181.748 34.0852 173.297 34.0852C164.721 34.0852 160.306 29.4895 160.306 21.8299ZM165.982 21.8299C165.982 26.681 168.126 29.2342 173.171 29.2342C178.216 29.2342 180.487 26.8086 180.487 21.8299C180.487 17.3618 178.216 15.064 173.171 15.064C168.252 15.064 165.982 17.3618 165.982 21.8299Z" fill="#211551"/>
<path d="M196 33.7024V15.447H187.676V10.7236H210V15.447H201.802V33.7024H196Z" fill="#211551"/>
</g>
<defs>
<clipPath id="clip0">
<rect width="210" height="48" fill="white"/>
</clipPath>
</defs>
</svg>
