<svg width="32" height="32" viewBox="0 0 32 32" fill="none" xmlns="http://www.w3.org/2000/svg">
<path d="M30.1249 17.0992V14.1255C30.1249 13.6077 29.7051 13.188 29.1874 13.188C27.2506 13.188 25.445 13.3514 23.7391 13.6852C22.7446 12.7248 21.5323 12.0281 20.2195 11.6473C21.651 10.4425 22.5624 8.63853 22.5624 6.62548C22.5624 2.97242 19.6185 0.000488281 15.9999 0.000488281C12.3814 0.000488281 9.43742 2.97242 9.43742 6.62548C9.43742 8.63853 10.3488 10.4425 11.7804 11.6472C10.4675 12.0281 9.25523 12.7248 8.2608 13.6851C6.55486 13.3514 4.74924 13.1879 2.81249 13.1879C2.29475 13.1879 1.875 13.6077 1.875 14.1254V17.0991C0.783811 17.4861 0 18.5282 0 19.7504V21.6254C0 22.8476 0.783811 23.8896 1.875 24.2766V27.2504C1.875 27.7681 2.29475 28.1879 2.81249 28.1879C7.7143 28.1879 11.7395 29.3493 15.48 31.8429C15.7934 32.0518 16.2063 32.0523 16.52 31.8429C20.2605 29.3493 24.2856 28.1879 29.1875 28.1879C29.7053 28.1879 30.125 27.7681 30.125 27.2504V24.2766C31.2162 23.8896 32 22.8476 32 21.6254V19.7504C31.9999 18.5283 31.2161 17.4862 30.1249 17.0992ZM11.3124 6.62548C11.3124 4.00629 13.4152 1.87548 15.9999 1.87548C18.5846 1.87548 20.6874 4.00629 20.6874 6.62548C20.6874 9.21016 18.5846 11.313 15.9999 11.313C13.4152 11.313 11.3124 9.21016 11.3124 6.62548ZM2.81243 22.5629C2.2955 22.5629 1.87493 22.1424 1.87493 21.6254V19.7505C1.87493 19.2335 2.2955 18.813 2.81243 18.813C3.32937 18.813 3.74993 19.2335 3.74993 19.7505V21.6254C3.74993 22.1424 3.32937 22.5629 2.81243 22.5629ZM15.0624 29.3807C11.6591 27.4344 8.00705 26.4507 3.74993 26.3264V24.2767C4.84112 23.8897 5.62493 22.8476 5.62493 21.6254V19.7505C5.62493 18.5283 4.84112 17.4862 3.74993 17.0992V15.0762C8.15498 15.2026 11.6958 16.24 15.0624 18.3835V29.3807ZM15.9999 16.7591C14.2695 15.6673 12.4684 14.836 10.5457 14.2518C11.6022 13.5652 12.8458 13.188 14.1249 13.188H17.8749C19.154 13.188 20.3976 13.5652 21.4541 14.2518C19.5314 14.836 17.7302 15.6673 15.9999 16.7591ZM28.2499 26.3264C23.9928 26.4507 20.3406 27.4347 16.9374 29.3809V18.3842C20.3041 16.2405 23.8446 15.2026 28.2499 15.0762V17.0992C27.1587 17.4862 26.3749 18.5283 26.3749 19.7505V21.6254C26.3749 22.8476 27.1587 23.8897 28.2499 24.2767V26.3264ZM30.1249 21.6254C30.1249 22.1424 29.7043 22.5629 29.1874 22.5629C28.6704 22.5629 28.2499 22.1424 28.2499 21.6254V19.7505C28.2499 19.2335 28.6704 18.813 29.1874 18.813C29.7043 18.813 30.1249 19.2335 30.1249 19.7505V21.6254Z" fill="#211551"/>
</svg>
