<?xml version="1.0" encoding="utf-8"?>
<!-- Generator: Adobe Illustrator 21.1.0, SVG Export Plug-In . SVG Version: 6.00 Build 0)  -->
<svg version="1.1" id="Layer_1" xmlns="http://www.w3.org/2000/svg" xmlns:xlink="http://www.w3.org/1999/xlink" x="0px" y="0px"
	 viewBox="0 0 26 27" style="enable-background:new 0 0 26 27;" xml:space="preserve">
<style type="text/css">
	.st0{fill:none;stroke:#211551;}
	.st1{fill:#211551;}
</style>
<circle class="st0" cx="13" cy="13.5" r="12.5"/>
<path class="st1" d="M8.4,8.1C8.2,8,7.8,8,7.6,8.1c-0.2,0.2-0.2,0.5,0,0.7L8.4,8.1z M17.6,18.9c0.2,0.2,0.5,0.2,0.7,0
	c0.2-0.2,0.2-0.5,0-0.7L17.6,18.9z M7.6,18.1c-0.2,0.2-0.2,0.5,0,0.7c0.2,0.2,0.5,0.2,0.7,0L7.6,18.1z M18.4,8.9
	c0.2-0.2,0.2-0.5,0-0.7c-0.2-0.2-0.5-0.2-0.7,0L18.4,8.9z M7.6,8.9l10,10l0.7-0.7l-10-10L7.6,8.9z M8.4,18.9l10-10l-0.7-0.7l-10,10
	L8.4,18.9z"/>
</svg>
