<svg width="32" height="32" viewBox="0 0 32 32" fill="none" xmlns="http://www.w3.org/2000/svg">
<path d="M31.1743 10.0704C30.0777 8.97381 28.2934 8.97388 27.1965 10.0707C26.8591 10.4084 24.705 12.5642 24.376 12.8936V5.46413C24.376 4.71288 24.0834 4.00662 23.5522 3.47544L20.9006 0.82375C20.3694 0.2925 19.6631 0 18.9119 0H2.81348C1.26266 0 0.000976562 1.26169 0.000976562 2.8125V27.1875C0.000976562 28.7383 1.26266 30 2.81348 30H21.5635C23.1143 30 24.376 28.7383 24.376 27.1875V20.8519L31.1742 14.0479C32.2734 12.9488 32.2737 11.1697 31.1743 10.0704ZM18.751 1.875C18.9282 1.875 19.2695 1.84431 19.5748 2.14956L22.2264 4.80125C22.5239 5.09881 22.501 5.42487 22.501 5.625H18.751V1.875ZM22.501 27.1875C22.501 27.7044 22.0805 28.125 21.5635 28.125H2.81348C2.29654 28.125 1.87598 27.7044 1.87598 27.1875V2.8125C1.87598 2.29556 2.29654 1.875 2.81348 1.875H16.876V6.5625C16.876 7.08025 17.2957 7.5 17.8135 7.5H22.501V14.7702L19.735 17.5385L18.4098 18.8638C18.3069 18.9666 18.2293 19.0921 18.1833 19.2302L16.8574 23.2077C16.7451 23.5446 16.8328 23.916 17.0839 24.1671C17.3354 24.4185 17.7069 24.5058 18.0433 24.3936L22.0208 23.0678C22.1589 23.0218 22.2844 22.9442 22.3872 22.8412L22.501 22.7275V27.1875ZM20.3985 19.5267L21.7243 20.8525L21.2179 21.3589L19.2292 22.0218L19.892 20.0331L20.3985 19.5267ZM23.0499 19.5264L21.724 18.2006C22.43 17.494 25.5656 14.3558 26.2306 13.6902L27.5564 15.016L23.0499 19.5264ZM29.8482 12.7224L28.8817 13.6896L27.5559 12.3638L28.5227 11.3962C28.8884 11.0307 29.483 11.0307 29.8485 11.3962C30.214 11.7619 30.2159 12.3546 29.8482 12.7224Z" fill="#211551"/>
<path d="M17.8135 9.375H4.68848C4.17073 9.375 3.75098 9.79475 3.75098 10.3125C3.75098 10.8303 4.17073 11.25 4.68848 11.25H17.8135C18.3312 11.25 18.751 10.8303 18.751 10.3125C18.751 9.79475 18.3312 9.375 17.8135 9.375Z" fill="#211551"/>
<path d="M14.0635 13.125H4.68848C4.17073 13.125 3.75098 13.5447 3.75098 14.0625C3.75098 14.5803 4.17073 15 4.68848 15H14.0635C14.5812 15 15.001 14.5803 15.001 14.0625C15.001 13.5447 14.5812 13.125 14.0635 13.125Z" fill="#211551"/>
<path d="M14.0635 16.875H4.68848C4.17073 16.875 3.75098 17.2947 3.75098 17.8125C3.75098 18.3303 4.17073 18.75 4.68848 18.75H14.0635C14.5812 18.75 15.001 18.3303 15.001 17.8125C15.001 17.2947 14.5812 16.875 14.0635 16.875Z" fill="#211551"/>
<path d="M14.0635 20.625H4.68848C4.17073 20.625 3.75098 21.0447 3.75098 21.5625C3.75098 22.0803 4.17073 22.5 4.68848 22.5H14.0635C14.5812 22.5 15.001 22.0803 15.001 21.5625C15.001 21.0447 14.5812 20.625 14.0635 20.625Z" fill="#211551"/>
<path d="M14.8135 24.375H9.18848C8.67073 24.375 8.25098 24.7947 8.25098 25.3125C8.25098 25.8303 8.67073 26.25 9.18848 26.25H14.8135C15.3312 26.25 15.751 25.8303 15.751 25.3125C15.751 24.7947 15.3312 24.375 14.8135 24.375Z" fill="#211551"/>
</svg>
