<svg width="32" height="32" viewBox="0 0 32 32" fill="none" xmlns="http://www.w3.org/2000/svg">
<path d="M24.4375 3.75H5.6875C5.16975 3.75 4.75 4.16975 4.75 4.6875V10.375C4.75 10.8927 5.16975 11.3125 5.6875 11.3125H24.4375C24.9552 11.3125 25.375 10.8927 25.375 10.375V4.6875C25.375 4.16975 24.9552 3.75 24.4375 3.75ZM23.5 9.4375H6.625V5.625H23.5V9.4375Z" fill="#FF6600"/>
<path d="M9.4375 13.1875H5.6875C5.16975 13.1875 4.75 13.6072 4.75 14.125V17.875C4.75 18.3927 5.16975 18.8125 5.6875 18.8125H9.4375C9.95525 18.8125 10.375 18.3927 10.375 17.875V14.125C10.375 13.6072 9.95525 13.1875 9.4375 13.1875ZM8.5 16.9375H6.625V15.0625H8.5V16.9375Z" fill="#FF6600"/>
<path d="M9.4375 20.6875H5.6875C5.16975 20.6875 4.75 21.1072 4.75 21.625V25.375C4.75 25.8927 5.16975 26.3125 5.6875 26.3125H9.4375C9.95525 26.3125 10.375 25.8927 10.375 25.375V21.625C10.375 21.1072 9.95525 20.6875 9.4375 20.6875ZM8.5 24.4375H6.625V22.5625H8.5V24.4375Z" fill="#FF6600"/>
<path d="M16.9375 13.1875H13.1875C12.6697 13.1875 12.25 13.6072 12.25 14.125V17.875C12.25 18.3927 12.6697 18.8125 13.1875 18.8125H16.9375C17.4552 18.8125 17.875 18.3927 17.875 17.875V14.125C17.875 13.6072 17.4552 13.1875 16.9375 13.1875ZM16 16.9375H14.125V15.0625H16V16.9375Z" fill="#FF6600"/>
<path d="M29.125 19.4826V2.8125C29.125 1.26169 27.8633 0 26.3125 0H3.8125C2.26169 0 1 1.26169 1 2.8125V27.25C1 28.8008 2.26169 30.0625 3.8125 30.0625H18.4927C19.8214 31.2664 21.5772 32 23.5 32C27.6355 32 31 28.6075 31 24.4375C31 22.5399 30.2913 20.8049 29.125 19.4826ZM13.1875 20.6875C12.6698 20.6875 12.25 21.1073 12.25 21.625V25.375C12.25 25.8927 12.6698 26.3125 13.1875 26.3125H16.2334C16.4021 26.9769 16.6583 27.6063 16.9888 28.1875H3.8125C3.29556 28.1875 2.875 27.7669 2.875 27.25V2.8125C2.875 2.29556 3.29556 1.875 3.8125 1.875H26.3125C26.8294 1.875 27.25 2.29556 27.25 2.8125V17.9443C26.6695 17.6077 26.0401 17.3466 25.375 17.1748V14.125C25.375 13.6073 24.9552 13.1875 24.4375 13.1875H20.6875C20.1698 13.1875 19.75 13.6073 19.75 14.125V17.875C19.75 17.8977 19.7518 17.92 19.7534 17.9423C18.6145 18.6018 17.6642 19.5521 17.0047 20.6909C16.9825 20.6893 16.9602 20.6875 16.9375 20.6875H13.1875ZM16 22.5625V24.4375H14.125V22.5625H16ZM23.5 15.0625V16.9375H21.625V15.0625H23.5ZM23.5 30.125C20.401 30.125 17.875 27.5757 17.875 24.4375C17.875 21.3359 20.3984 18.8125 23.5 18.8125C26.6016 18.8125 29.125 21.3359 29.125 24.4375C29.125 27.5736 26.6016 30.125 23.5 30.125Z" fill="#FF6600"/>
<path d="M25.375 23.5H24.4375V22.5625C24.4375 22.0447 24.0178 21.625 23.5 21.625C22.9822 21.625 22.5625 22.0447 22.5625 22.5625V24.4375C22.5625 24.9553 22.9822 25.375 23.5 25.375H25.375C25.8928 25.375 26.3125 24.9553 26.3125 24.4375C26.3125 23.9197 25.8928 23.5 25.375 23.5Z" fill="#FF6600"/>
</svg>
